<?xml version="1.0" encoding="utf-8"?>
<!-- Svg Vector Icons : http://www.onlinewebfonts.com/icon -->
<!DOCTYPE svg PUBLIC "-//W3C//DTD SVG 1.1//EN" "http://www.w3.org/Graphics/SVG/1.1/DTD/svg11.dtd">
<svg version="1.1" xmlns="http://www.w3.org/2000/svg" xmlns:xlink="http://www.w3.org/1999/xlink" x="0px" y="0px" viewBox="0 0 256 256" enable-background="new 0 0 256 256" xml:space="preserve">
<metadata> Svg Vector Icons : http://www.onlinewebfonts.com/icon </metadata>
<g><g><g><path fill="#000000" d="M133.9,46.9c-5.9,15.3-10.8,27.9-11,27.9c-0.1,0-3.4-3.7-7.2-8.3c-3.8-4.5-7-8.1-7.2-7.9c-0.2,0.2-1.8,4.9-3.6,10.6c-1.8,5.6-3.4,10.3-3.6,10.5c-0.1,0.2-6-12.1-12.9-27.4C77.7,29.3,75.6,24.9,75.5,26.3c0,0.9,0.6,11.9,1.6,24.5c0.9,12.5,1.6,22.9,1.5,23c-0.1,0.1-6.3-5.8-13.7-13.2c-7.4-7.4-13.5-13.2-13.6-13.1c-0.1,0.2,1.5,11.8,3.5,25.8c2,14,3.6,25.5,3.5,25.5c0,0-10.9-7.7-24.1-17.2C21,72.1,10.1,64.3,10,64.3c-0.1,0.1,23.8,44.1,29.5,54.5c1,1.8,1.3,2.6,0.8,2.8c-0.3,0.1-6.8,1.8-14.4,3.7l-13.8,3.5l3.1,2.8c1.7,1.6,3.8,3.4,4.6,4l1.5,1.2l4.8-1.2c2.7-0.6,5.3-1.4,5.8-1.6c0.5-0.2,5.8-1.7,11.6-3.2c5.9-1.5,10.9-2.8,11.3-2.9c0.3-0.1-2.6-6-7.7-15.3c-4.6-8.3-8.2-15.2-8.1-15.3c0.1-0.1,7.2,4.9,15.9,11.2c8.7,6.3,15.8,11.2,15.9,10.9c0.1-0.3-4.9-36.6-6-43.7c-0.3-1.6,0.8-0.6,12.6,11.2l13,12.9l-0.3-3.2c-1.9-22-2.3-21.6,5.3-4.9c3.5,7.9,6.6,14.6,6.9,14.9c0.2,0.4,2-4.5,4.7-13.1c2.4-7.6,4.5-14.3,4.8-14.8c0.3-1.1,1-0.5,7,6.8c3.6,4.3,6.7,8.1,6.9,8.2c0.1,0.2,3.5-7.9,7.3-18c5.3-13.9,7.1-18.1,7.4-17.3c0.2,0.6,1.4,8.7,2.6,18c1.3,9.3,2.4,17.1,2.4,17.2c0.1,0.1,5.6-2.9,12.2-6.6c6.6-3.8,14.7-8,17.9-9.5c4.2-1.9,5.8-2.9,5.8-3.4c0-0.4,0-3.1-0.1-5.9c0-2.8-0.3-5.1-0.5-5.1s-6.5,3.4-13.9,7.6c-7.3,4.2-13.4,7.5-13.5,7.4c-0.1-0.1-2-13.3-4.2-29.3c-2.2-16-4.1-29.3-4.3-29.5C144.6,19.2,139.7,31.6,133.9,46.9z"/><path fill="#000000" d="M222.9,74.7c-4.1,1.5-7.6,2.8-7.7,2.8c0,0,0.7,1.9,1.7,4.1l1.8,4l6.2-6.8c3.4-3.7,6-6.8,5.8-6.8C230.6,72,227,73.2,222.9,74.7z"/><path fill="#000000" d="M193.3,75.9l-5.6,3l1.8,10.7c1,5.9,2.4,13.1,3.1,16c0.7,2.9,1.2,5.3,1.1,5.4c-0.1,0-1.5-1.6-3.1-3.6c-3.4-4.3-8.6-10-14.7-16.3l-4.2-4.3l-6,3.1c-4.3,2.2-5.9,3.3-5.8,3.8c0.2,0.9,16.7,39.2,17.4,40.4c0.4,0.8,0.8,0.7,4.6-1.2c2.3-1.2,4.1-2.2,4.1-2.4c0-0.1-2.8-6.4-6.1-13.8c-3.3-7.4-6.6-14.8-7.3-16.2l-1.2-2.7l1.3,1.7c3.3,4.1,8.1,9.6,15.1,17.3l7.6,8.3l3.4-1.7c1.9-0.9,3.5-1.8,3.6-1.8c0.2-0.2-4.6-28.5-5.5-32.7c-0.4-1.7-0.7-3.2-0.7-3.4c0-0.2,1.7,2.9,3.8,6.8c3.6,6.7,13.1,23.7,13.5,24.1c0.2,0.2,8.9-3.9,8.9-4.3c0-0.7-22.6-39.3-23-39.3C199.1,72.9,196.4,74.3,193.3,75.9z"/><path fill="#000000" d="M135.9,114.2c-3.3,0.8-7.5,3.4-10,6.1c-10.3,11.3-7.3,32.1,5.5,38.2c10.4,4.9,23.8,1,28.8-8.3c2.2-4.1,3-7.8,3-13.4c0-10.2-4.1-17.6-12-21.2c-2.9-1.4-3.8-1.6-8.3-1.7C140.1,113.7,136.9,113.9,135.9,114.2z M146.5,123.2c4.2,2.9,5.8,6.5,5.8,13.8c0,7.8-2.1,12.5-6.7,14.6c-5.2,2.4-10.7-0.1-13.5-6.1c-1-2.1-1.1-3.2-1.1-8.2c0-4.5,0.2-6.3,0.9-8c2.1-5,5-7.2,9.8-7.3C144.1,121.9,145,122.1,146.5,123.2z"/><path fill="#000000" d="M86.1,119.3c-2.3,0.3-7,2.2-9,3.6c-11.3,7.7-12.6,26.5-2.6,37.1c3.7,4,7.6,5.7,13.2,6c13.1,0.6,22.1-6.5,23.7-18.8c1-7.5-1.5-16.5-6-21.6C101.1,120.7,93.3,118.2,86.1,119.3z M92.6,128.1c2.6,1.2,5.2,4.2,6.6,7.6c1,2.4,1.1,3.7,1.2,8.4c0,5-0.1,5.8-1.2,8c-1.8,3.6-4.2,5.3-8,5.5c-4.9,0.3-8.3-1.9-10.7-7.2c-2.5-5.5-2.6-12.9-0.2-17.8C82.5,128.1,88,126.1,92.6,128.1z"/><path fill="#000000" d="M219.5,125.3c-4.9,3.2-9.8,6.3-10.8,6.8c-1,0.6-1.8,1.2-1.8,1.3c0,0.2,2.1,4,4.8,8.5c2.6,4.6,4.8,8.3,4.7,8.3c0,0-5.3-1.5-11.6-3.3c-6.4-1.9-11.6-3.3-11.7-3.3c-0.1,0.1,6,11.9,13.6,26.1c7.6,14.3,13.7,26,13.6,26.1s-12.5-7.6-27.5-17c-15-9.5-27.4-17.1-27.5-17s12.5,27.8,13.4,29.5c0.1,0.2-0.7-0.1-1.9-0.8c-14.6-8.4-20.6-11.8-20.9-11.6c-0.2,0.1-0.4,2.7-0.4,5.6c0,3-0.2,6.6-0.4,8.2l-0.3,2.7l-7.3-7.9c-4-4.4-8.3-9.1-9.6-10.5l-2.3-2.6l0.3,12.9c0.2,7.1,0.2,12.8,0.1,12.6c-0.1-0.1-3.3-5.4-7.1-11.6c-3.8-6.3-7.1-11.6-7.3-11.8c-0.2-0.2-1.3,3.3-2.5,7.9c-1.2,4.6-2.2,8.1-2.4,7.9c-0.1-0.2-0.9-2-1.6-4.1c-0.7-2-1.5-3.7-1.7-3.7c-0.2,0-5.5,5.2-11.7,11.7s-11.4,11.5-11.5,11.2c-0.1-0.2,1.1-8.1,2.6-17.3c1.5-9.3,2.7-16.9,2.6-17c-0.1-0.1-8.8,3.8-19.4,8.7c-10.5,4.9-19.2,8.9-19.3,8.8s0.6-1.5,1.6-3c1-1.6,1.6-2.9,1.6-3c-0.1-0.1-3.4,1.2-7.4,2.8l-7.2,3l-6.5,11c-3.5,6-6.3,11.1-6.2,11.2c0.1,0.1,11.4-5,25.1-11.5c15.1-7,24.9-11.4,25-11.1c0,0.3-1.5,10.6-3.5,22.8c-2,12.2-3.6,22.6-3.6,23c0,0.5,7.1-6.4,17.1-16.5l17.1-17.4l0.6,1.4c0.3,0.8,2.3,5.9,4.4,11.5c2.1,5.5,3.9,9.9,4.1,9.7c0.2-0.2,1.6-5.4,3.2-11.5c1.5-6.2,2.9-11.3,3.1-11.5c0.1-0.2,5.1,7.7,11.1,17.5l10.8,17.8v-5.5c0-3.1-0.2-11.2-0.5-18c-0.2-6.8-0.3-12.4-0.2-12.5c0-0.1,4,4.1,8.8,9.3c4.8,5.2,8.7,9.4,8.8,9.3c0,0,0.3-5.4,0.7-11.9c0.3-6.5,0.6-11.9,0.7-12c0.1-0.1,8,4.3,17.5,9.8c9.6,5.5,17.4,9.9,17.5,9.8c0.1,0-2.7-6.2-6.1-13.7c-3.4-7.4-6.2-13.6-6.2-13.7c0.1,0,13.2,8.1,29.2,18.1c15.9,10,29.1,18.2,29.2,18.1c0-0.1-7.4-14.4-16.6-31.7c-9.2-17.4-16.9-31.8-17-32.1c-0.1-0.3,5.3,1.1,12,3c6.8,2,12.3,3.5,12.4,3.5c0-0.1-3.6-6.6-8.2-14.4c-4.6-7.9-8.4-14.5-8.5-14.8c-0.1-0.3,4-3.2,9.4-6.5c5.3-3.3,10.3-6.5,11.2-7l1.6-1.1l-6.1-1.3c-3.3-0.8-6.5-1.5-6.9-1.6C228.8,119.6,224.7,121.9,219.5,125.3z"/><path fill="#000000" d="M40.3,137.2c-4.2,0.8-15.3,4.3-16.4,5.2c-0.6,0.5,0.1,3.6,5.1,21.9c3.2,11.7,5.9,21.4,6,21.5c0.2,0.2,8.2-1.5,12.2-2.6c8.5-2.5,14.2-6.2,16.2-10.5c1.1-2.4,1.2-7.4,0.3-9.7c-1.6-3.6-5-6.3-9-6.9l-2-0.3l1.9-2.1c3.8-4.4,3.7-9.7-0.2-13.6C51.2,136.9,46.6,136,40.3,137.2z M46.1,146.3c1.6,1.9,1.6,5-0.2,6.7c-1.6,1.5-5.1,3.1-7.1,3.3c-1.4,0.1-1.4,0.1-2.8-4.9c-1.1-4.1-1.2-5-0.6-5.3C40.6,144.3,44.4,144.3,46.1,146.3z M51.7,164c1.1,1,1.6,1.9,1.7,3.5c0.3,2.9-0.7,4.9-3.4,6.4c-2.5,1.5-6.5,2.6-7.1,2c-0.7-0.7-3.4-11.5-3.1-11.9c0.7-0.7,3.8-1.3,7-1.3C49.8,162.6,50.3,162.8,51.7,164z"/></g></g></g>
</svg>